<svg width="22" height="23" viewBox="0 0 22 23" fill="none" xmlns="http://www.w3.org/2000/svg">
<path d="M20.2025 12.2589C20.023 12.0491 19.924 11.7793 19.924 11.5C19.924 11.2207 20.023 10.9509 20.2025 10.7411L21.6357 9.08533C21.7936 8.90442 21.8916 8.67679 21.9158 8.4351C21.9399 8.19341 21.8889 7.95007 21.77 7.74001L19.5307 3.76155C19.413 3.55173 19.2339 3.38541 19.0187 3.28631C18.8036 3.1872 18.5635 3.16037 18.3327 3.20963L16.2277 3.64657C15.9599 3.7034 15.681 3.65759 15.4438 3.51779C15.2066 3.37798 15.0274 3.15384 14.9401 2.88767L14.2571 0.783457C14.182 0.555074 14.0389 0.35671 13.848 0.216403C13.6571 0.0760954 13.4282 0.000941488 13.1934 0.00156374H8.7148C8.47064 -0.0115238 8.22902 0.0578214 8.02684 0.199008C7.82467 0.340195 7.67305 0.545462 7.59514 0.783457L6.96813 2.88767C6.8808 3.15384 6.70163 3.37798 6.46442 3.51779C6.22721 3.65759 5.94837 3.7034 5.68053 3.64657L3.51959 3.20963C3.30075 3.17787 3.07766 3.21333 2.87841 3.31155C2.67917 3.40977 2.51268 3.56634 2.39993 3.76155L0.160616 7.74001C0.0387525 7.94773 -0.0160413 8.1897 0.00406833 8.43132C0.0241779 8.67295 0.118161 8.90186 0.272582 9.08533L1.69455 10.7411C1.87405 10.9509 1.97304 11.2207 1.97304 11.5C1.97304 11.7793 1.87405 12.0491 1.69455 12.2589L0.272582 13.9147C0.118161 14.0981 0.0241779 14.327 0.00406833 14.5687C-0.0160413 14.8103 0.0387525 15.0523 0.160616 15.26L2.39993 19.2384C2.5176 19.4483 2.69677 19.6146 2.9119 19.7137C3.12702 19.8128 3.36712 19.8396 3.59797 19.7904L5.70292 19.3534C5.97076 19.2966 6.2496 19.3424 6.48681 19.4822C6.72402 19.622 6.9032 19.8462 6.99053 20.1123L7.67352 22.2165C7.75142 22.4545 7.90304 22.6598 8.10522 22.801C8.3074 22.9422 8.54902 23.0115 8.79318 22.9984H13.2718C13.5065 22.9991 13.7355 22.9239 13.9264 22.7836C14.1173 22.6433 14.2604 22.4449 14.3355 22.2165L15.0185 20.1123C15.1058 19.8462 15.285 19.622 15.5222 19.4822C15.7594 19.3424 16.0382 19.2966 16.3061 19.3534L18.411 19.7904C18.6419 19.8396 18.882 19.8128 19.0971 19.7137C19.3122 19.6146 19.4914 19.4483 19.6091 19.2384L21.8484 15.26C21.9673 15.0499 22.0183 14.8066 21.9942 14.5649C21.97 14.3232 21.872 14.0956 21.714 13.9147L20.2025 12.2589ZM18.5342 13.7997L19.4299 14.8345L17.9968 17.3872L16.6756 17.1112C15.8692 16.942 15.0303 17.0826 14.3182 17.5066C13.6062 17.9305 13.0704 18.6081 12.8127 19.4109L12.3873 20.6987H9.52095L9.11788 19.3879C8.86019 18.5852 8.32447 17.9075 7.61239 17.4836C6.90032 17.0596 6.06146 16.919 5.25506 17.0882L3.93386 17.3642L2.47831 14.823L3.37403 13.7882C3.92485 13.1557 4.22938 12.337 4.22938 11.4885C4.22938 10.64 3.92485 9.82125 3.37403 9.18881L2.47831 8.15395L3.91147 5.6243L5.23267 5.90026C6.03907 6.06954 6.87792 5.92887 7.59 5.50494C8.30207 5.08102 8.8378 4.40335 9.09548 3.60057L9.52095 2.30125H12.3873L12.8127 3.61207C13.0704 4.41485 13.6062 5.09251 14.3182 5.51644C15.0303 5.94037 15.8692 6.08104 16.6756 5.91176L17.9968 5.6358L19.4299 8.18845L18.5342 9.22331C17.9896 9.8543 17.6888 10.6683 17.6888 11.5115C17.6888 12.3547 17.9896 13.1687 18.5342 13.7997ZM10.9541 6.90063C10.0683 6.90063 9.20243 7.17037 8.46592 7.67576C7.72941 8.18115 7.15538 8.89947 6.8164 9.73989C6.47742 10.5803 6.38873 11.5051 6.56154 12.3973C6.73435 13.2895 7.1609 14.109 7.78725 14.7522C8.41359 15.3955 9.21161 15.8335 10.0804 16.011C10.9491 16.1885 11.8497 16.0974 12.668 15.7493C13.4864 15.4012 14.1858 14.8116 14.678 14.0553C15.1701 13.2989 15.4327 12.4097 15.4327 11.5C15.4327 10.2802 14.9609 9.1103 14.121 8.24775C13.2811 7.3852 12.1419 6.90063 10.9541 6.90063ZM10.9541 13.7997C10.5112 13.7997 10.0783 13.6648 9.71002 13.4121C9.34177 13.1594 9.05475 12.8003 8.88526 12.3801C8.71577 11.9598 8.67142 11.4974 8.75783 11.0514C8.84423 10.6053 9.05751 10.1955 9.37068 9.87388C9.68386 9.55226 10.0829 9.33323 10.5172 9.2445C10.9516 9.15577 11.4019 9.20131 11.8111 9.37537C12.2202 9.54942 12.57 9.84418 12.816 10.2224C13.0621 10.6005 13.1934 11.0452 13.1934 11.5C13.1934 12.1099 12.9575 12.6948 12.5376 13.1261C12.1176 13.5574 11.548 13.7997 10.9541 13.7997Z" fill="#F8F8F8"/>
</svg>
