<svg width="23" height="19" viewBox="0 0 23 19" fill="none" xmlns="http://www.w3.org/2000/svg">
<path fill-rule="evenodd" clip-rule="evenodd" d="M6.01552 0.93718C4.99301 0.912696 3.96989 0.941313 2.95033 1.02287C2.18869 1.0021 1.45206 1.2957 0.913443 1.83461C0.374851 2.37356 0.0817513 3.11038 0.102992 3.87199C0.00890151 4.31574 -0.0205785 4.77073 0.0155195 5.22289V13.7943C-0.021337 14.2464 0.0075413 14.7014 0.101213 15.1452C0.0804173 15.9068 0.373988 16.6435 0.912919 17.1821C1.45188 17.7207 2.18872 18.0139 2.95039 17.9926C3.96882 18.0738 4.99076 18.1024 6.01212 18.0783H16.2978C17.3203 18.103 18.3434 18.0743 19.3629 17.9926C20.1246 18.0134 20.8612 17.7198 21.3999 17.1809C21.9385 16.642 22.2316 15.9051 22.2104 15.1435C22.3054 14.7005 22.336 14.2461 22.3012 13.7943V5.22289C22.3381 4.77083 22.3092 4.31584 22.2155 3.87205C22.2363 3.11038 21.9428 2.37372 21.4038 1.83508C20.8649 1.29648 20.128 1.00336 19.3664 1.0246C18.3468 0.942621 17.3237 0.913481 16.3012 0.93718H6.01552ZM6.01552 2.65147H16.3012C17.5869 2.65147 18.5298 2.65659 19.1727 2.72863C19.5438 2.66141 19.9243 2.78032 20.1911 3.04682C20.458 3.31337 20.5774 3.69365 20.5107 4.06488C20.6046 4.44328 20.6304 4.83539 20.587 5.22289V6.08004H17.1584C17.0953 6.07936 17.0323 6.08569 16.9707 6.09887C15.157 6.1944 13.7354 7.69283 13.7354 9.50903C13.7354 11.3252 15.157 12.8237 16.9707 12.9192C17.0324 12.932 17.0953 12.9381 17.1584 12.9372H20.587V13.7943C20.63 14.1816 20.6039 14.5734 20.5098 14.9514C20.577 15.3226 20.4581 15.7031 20.1916 15.9699C19.9251 16.2368 19.5447 16.3562 19.1735 16.2895C18.5341 16.3614 17.5835 16.3666 16.3004 16.3666H6.01552C5.6881 16.3666 5.44295 16.3615 5.15838 16.3597V2.65748C5.44295 2.65748 5.6881 2.65063 6.01552 2.65063V2.65147ZM3.44409 2.71147V16.3049C3.35408 16.2981 3.22465 16.2972 3.14409 16.2886C2.77296 16.3558 2.39249 16.2369 2.12563 15.9704C1.85876 15.7038 1.73938 15.3236 1.80608 14.9523C1.7122 14.5739 1.68638 14.1818 1.72981 13.7943V5.22289C1.68675 4.83565 1.71285 4.44386 1.80694 4.06577C1.73982 3.69464 1.85871 3.3142 2.12521 3.04734C2.39173 2.78048 2.77204 2.66109 3.14325 2.72779C3.22379 2.71838 3.35408 2.71838 3.44493 2.71152L3.44409 2.71147ZM17.1584 7.79432H20.5869V11.2229H17.1584C16.5459 11.2229 15.98 10.8961 15.6738 10.3658C15.3675 9.83537 15.3675 9.18184 15.6738 8.65147C15.98 8.12109 16.5459 7.79432 17.1584 7.79432ZM17.1584 8.65147C16.685 8.65147 16.3012 9.0352 16.3012 9.50861C16.3012 9.98201 16.685 10.3658 17.1584 10.3658C17.6318 10.3658 18.0155 9.98201 18.0155 9.50861C18.0155 9.0352 17.6318 8.65147 17.1584 8.65147Z" fill="#F8F8F8"/>
</svg>
