<svg width="22" height="13" viewBox="0 0 22 13" fill="none" xmlns="http://www.w3.org/2000/svg">
<path d="M21.912 0.671342C21.8004 0.406758 21.5869 0.196503 21.3182 0.0866247C21.186 0.0311405 21.044 0.00171083 20.9003 0H15.4019C15.1103 0 14.8306 0.114082 14.6243 0.317148C14.4181 0.520214 14.3022 0.795631 14.3022 1.08281C14.3022 1.36999 14.4181 1.64541 14.6243 1.84847C14.8306 2.05154 15.1103 2.16562 15.4019 2.16562H18.2501L12.1029 8.21853L8.48492 4.64526C8.38269 4.54377 8.26106 4.46321 8.12706 4.40824C7.99305 4.35327 7.84932 4.32496 7.70414 4.32496C7.55897 4.32496 7.41524 4.35327 7.28123 4.40824C7.14723 4.46321 7.0256 4.54377 6.92337 4.64526L0.325284 11.1421C0.222212 11.2428 0.140402 11.3625 0.0845731 11.4945C0.0287437 11.6264 0 11.768 0 11.9109C0 12.0539 0.0287437 12.1954 0.0845731 12.3273C0.140402 12.4593 0.222212 12.579 0.325284 12.6797C0.427513 12.7812 0.54914 12.8618 0.683146 12.9167C0.817152 12.9717 0.960886 13 1.10606 13C1.25123 13 1.39496 12.9717 1.52897 12.9167C1.66298 12.8618 1.7846 12.7812 1.88683 12.6797L7.70414 6.94081L11.3221 10.5141C11.4243 10.6156 11.546 10.6961 11.68 10.7511C11.814 10.8061 11.9577 10.8344 12.1029 10.8344C12.248 10.8344 12.3918 10.8061 12.5258 10.7511C12.6598 10.6961 12.7814 10.6156 12.8836 10.5141L19.8006 3.69238V6.49686C19.8006 6.78404 19.9165 7.05946 20.1227 7.26252C20.329 7.46559 20.6087 7.57967 20.9003 7.57967C21.192 7.57967 21.4717 7.46559 21.6779 7.26252C21.8841 7.05946 22 6.78404 22 6.49686V1.08281C21.9983 0.941311 21.9684 0.80152 21.912 0.671342Z" fill="#F8F8F8"/>
</svg>
