<svg width="22" height="19" viewBox="0 0 22 19" fill="none" xmlns="http://www.w3.org/2000/svg">
<path d="M0 14.75C0 14.5511 0.0772617 14.3603 0.214788 14.2197C0.352315 14.079 0.538841 14 0.733333 14H3.66667C3.86116 14 4.04768 14.079 4.18521 14.2197C4.32274 14.3603 4.4 14.5511 4.4 14.75V17.75C4.4 17.9489 4.32274 18.1397 4.18521 18.2803C4.04768 18.421 3.86116 18.5 3.66667 18.5H0.733333C0.538841 18.5 0.352315 18.421 0.214788 18.2803C0.0772617 18.1397 0 17.9489 0 17.75V14.75ZM5.86667 10.25C5.86667 10.0511 5.94393 9.86032 6.08146 9.71967C6.21898 9.57902 6.40551 9.5 6.6 9.5H9.53333C9.72783 9.5 9.91435 9.57902 10.0519 9.71967C10.1894 9.86032 10.2667 10.0511 10.2667 10.25V17.75C10.2667 17.9489 10.1894 18.1397 10.0519 18.2803C9.91435 18.421 9.72783 18.5 9.53333 18.5H6.6C6.40551 18.5 6.21898 18.421 6.08146 18.2803C5.94393 18.1397 5.86667 17.9489 5.86667 17.75V10.25ZM11.7333 5.75C11.7333 5.55109 11.8106 5.36032 11.9481 5.21967C12.0856 5.07902 12.2722 5 12.4667 5H15.4C15.5945 5 15.781 5.07902 15.9185 5.21967C16.0561 5.36032 16.1333 5.55109 16.1333 5.75V17.75C16.1333 17.9489 16.0561 18.1397 15.9185 18.2803C15.781 18.421 15.5945 18.5 15.4 18.5H12.4667C12.2722 18.5 12.0856 18.421 11.9481 18.2803C11.8106 18.1397 11.7333 17.9489 11.7333 17.75V5.75ZM17.6 1.25C17.6 1.05109 17.6773 0.860322 17.8148 0.71967C17.9523 0.579018 18.1388 0.5 18.3333 0.5H21.2667C21.4612 0.5 21.6477 0.579018 21.7852 0.71967C21.9227 0.860322 22 1.05109 22 1.25V17.75C22 17.9489 21.9227 18.1397 21.7852 18.2803C21.6477 18.421 21.4612 18.5 21.2667 18.5H18.3333C18.1388 18.5 17.9523 18.421 17.8148 18.2803C17.6773 18.1397 17.6 17.9489 17.6 17.75V1.25Z" fill="#F8F8F8"/>
</svg>
