<svg width="20" height="23" viewBox="0 0 20 23" fill="none" xmlns="http://www.w3.org/2000/svg">
<path d="M5.72937 19.012C5.20498 19.1853 4.92036 19.7509 5.09367 20.2753C5.26697 20.7997 5.83256 21.0843 6.35695 20.911L5.72937 19.012ZM11.8622 20.3462L11.7722 19.3502L11.8622 20.3462ZM15.3536 19.5769L15.7891 20.4771H15.7891L15.3536 19.5769ZM18.6897 16.5681L17.9153 15.9354L18.6897 16.5681ZM16.408 14.6854L17.1121 15.3955L16.408 14.6854ZM14.8715 16.2087L15.5756 16.9188L14.8715 16.2087ZM10.6984 15.8846C10.1461 15.8846 9.69838 16.3323 9.69838 16.8846C9.69838 17.4369 10.1461 17.8846 10.6984 17.8846V15.8846ZM18.335 14.4962L17.7836 15.3305L18.335 14.4962ZM7.22402 13.9915L7.66816 14.8875H7.66816L7.22402 13.9915ZM11.4001 13.6128L11.6611 12.6475H11.6611L11.4001 13.6128ZM13.0309 14.0538L12.7699 15.0191H12.7699L13.0309 14.0538ZM13.5476 15.9829L12.8435 15.2727L13.5476 15.9829ZM11.934 16.1745C11.5418 16.5633 11.5391 17.1965 11.9279 17.5887C12.3168 17.9809 12.9499 17.9836 13.3421 17.5948L11.934 16.1745ZM6.35695 20.911C6.4545 20.8788 6.67974 20.8518 7.10006 20.8815C7.50005 20.9098 7.96832 20.9794 8.50785 21.0634C9.52864 21.2224 10.8321 21.4433 11.9521 21.3421L11.7722 19.3502C10.9526 19.4242 9.92845 19.2605 8.81559 19.0872C8.2883 19.0051 7.73824 18.9216 7.24113 18.8865C6.76435 18.8528 6.21371 18.852 5.72937 19.012L6.35695 20.911ZM11.9521 21.3421C13.4538 21.2065 14.2079 21.2421 15.7891 20.4771L14.9181 18.6767C13.7223 19.2553 13.3478 19.2079 11.7722 19.3502L11.9521 21.3421ZM15.7891 20.4771C17.219 19.7853 18.6284 18.2238 19.4642 17.2007L17.9153 15.9354C17.0698 16.9704 15.9056 18.199 14.9181 18.6767L15.7891 20.4771ZM15.7039 13.9753L14.1675 15.4986L15.5756 16.9188L17.1121 15.3955L15.7039 13.9753ZM13.2257 15.8846H10.6984V17.8846H13.2257V15.8846ZM14.1675 15.4986C13.9191 15.7448 13.5805 15.8846 13.2257 15.8846V17.8846C14.1054 17.8846 14.9509 17.5382 15.5756 16.9188L14.1675 15.4986ZM18.8864 13.662C17.8866 13.0011 16.5558 13.1307 15.7039 13.9753L17.1121 15.3955C17.2897 15.2194 17.572 15.1906 17.7836 15.3305L18.8864 13.662ZM19.4642 17.2007C20.4053 16.0487 20.046 14.4284 18.8864 13.662L17.7836 15.3305C18.0394 15.4995 18.0448 15.7769 17.9153 15.9354L19.4642 17.2007ZM1.77587 14.0385H4.87935V12.0385H1.77587V14.0385ZM4.65522 13.8077V20.7308H6.65522V13.8077H4.65522ZM4.87935 20.5H1.77587V22.5H4.87935V20.5ZM2 20.7308V13.8077H0V20.7308H2ZM1.77587 20.5C1.89153 20.5 2 20.5952 2 20.7308H0C0 21.716 0.803209 22.5 1.77587 22.5V20.5ZM4.65522 20.7308C4.65522 20.5952 4.76369 20.5 4.87935 20.5V22.5C5.85201 22.5 6.65522 21.716 6.65522 20.7308H4.65522ZM4.87935 14.0385C4.76369 14.0385 4.65522 13.9432 4.65522 13.8077H6.65522C6.65522 12.8225 5.85202 12.0385 4.87935 12.0385V14.0385ZM1.77587 12.0385C0.803205 12.0385 0 12.8225 0 13.8077H2C2 13.9432 1.89153 14.0385 1.77587 14.0385V12.0385ZM6.4873 15.4729L7.66816 14.8875L6.77987 13.0956L5.59901 13.681L6.4873 15.4729ZM9.65288 14.4231H9.97106V12.4231H9.65288V14.4231ZM11.1391 14.5781L12.7699 15.0191L13.2919 13.0884L11.6611 12.6475L11.1391 14.5781ZM12.8435 15.2727L11.934 16.1745L13.3421 17.5948L14.2517 16.693L12.8435 15.2727ZM12.7699 15.0191C12.8963 15.0533 12.922 15.1949 12.8435 15.2727L14.2517 16.693C15.4369 15.5179 14.8897 13.5205 13.2919 13.0884L12.7699 15.0191ZM9.97106 14.4231C10.3657 14.4231 10.7585 14.4752 11.1391 14.5781L11.6611 12.6475C11.1102 12.4985 10.5419 12.4231 9.97106 12.4231V14.4231ZM7.66816 14.8875C8.284 14.5822 8.96354 14.4231 9.65288 14.4231V12.4231C8.65591 12.4231 7.67231 12.6532 6.77987 13.0956L7.66816 14.8875ZM14.7415 7.65385C14.7415 8.79281 13.8079 9.73077 12.6381 9.73077V11.7308C14.8962 11.7308 16.7415 9.91355 16.7415 7.65385H14.7415ZM12.6381 9.73077C11.4682 9.73077 10.5346 8.79281 10.5346 7.65385H8.53457C8.53457 9.91355 10.3799 11.7308 12.6381 11.7308V9.73077ZM10.5346 7.65385C10.5346 6.51488 11.4682 5.57692 12.6381 5.57692V3.57692C10.3799 3.57692 8.53457 5.39414 8.53457 7.65385H10.5346ZM12.6381 5.57692C13.8079 5.57692 14.7415 6.51488 14.7415 7.65385H16.7415C16.7415 5.39414 14.8962 3.57692 12.6381 3.57692V5.57692ZM9.53458 6.65385C8.36473 6.65385 7.43109 5.71589 7.43109 4.57692H5.43109C5.43109 6.83663 7.2764 8.65385 9.53458 8.65385V6.65385ZM7.43109 4.57692C7.43109 3.43796 8.36473 2.5 9.53458 2.5V0.5C7.2764 0.5 5.43109 2.31722 5.43109 4.57692H7.43109ZM9.53458 2.5C10.7044 2.5 11.6381 3.43796 11.6381 4.57692H13.6381C13.6381 2.31722 11.7927 0.5 9.53458 0.5V2.5Z" fill="#F8F8F8"/>
</svg>
