<svg width="22" height="21" viewBox="0 0 22 21" fill="none" xmlns="http://www.w3.org/2000/svg">
<path d="M9.25 20.125C9.25 20.3571 9.15781 20.5796 8.99372 20.7437C8.82962 20.9078 8.60706 21 8.375 21H2.25C1.78587 21 1.34075 20.8156 1.01256 20.4874C0.684374 20.1592 0.5 19.7141 0.5 19.25V1.75C0.5 1.28587 0.684374 0.840752 1.01256 0.512563C1.34075 0.184374 1.78587 0 2.25 0H8.375C8.60706 0 8.82962 0.0921874 8.99372 0.256282C9.15781 0.420376 9.25 0.642936 9.25 0.875C9.25 1.10706 9.15781 1.32962 8.99372 1.49372C8.82962 1.65781 8.60706 1.75 8.375 1.75H2.25V19.25H8.375C8.60706 19.25 8.82962 19.3422 8.99372 19.5063C9.15781 19.6704 9.25 19.8929 9.25 20.125ZM21.2441 9.88094L16.8691 5.50594C16.7049 5.34175 16.4822 5.24951 16.25 5.24951C16.0178 5.24951 15.7951 5.34175 15.6309 5.50594C15.4668 5.67012 15.3745 5.89281 15.3745 6.125C15.3745 6.35719 15.4668 6.57988 15.6309 6.74406L18.513 9.625H8.375C8.14294 9.625 7.92038 9.71719 7.75628 9.88128C7.59219 10.0454 7.5 10.2679 7.5 10.5C7.5 10.7321 7.59219 10.9546 7.75628 11.1187C7.92038 11.2828 8.14294 11.375 8.375 11.375H18.513L15.6309 14.2559C15.4668 14.4201 15.3745 14.6428 15.3745 14.875C15.3745 15.1072 15.4668 15.3299 15.6309 15.4941C15.7951 15.6582 16.0178 15.7505 16.25 15.7505C16.4822 15.7505 16.7049 15.6582 16.8691 15.4941L21.2441 11.1191C21.3254 11.0378 21.39 10.9413 21.434 10.8351C21.478 10.7288 21.5007 10.615 21.5007 10.5C21.5007 10.385 21.478 10.2712 21.434 10.1649C21.39 10.0587 21.3254 9.9622 21.2441 9.88094Z" fill="#DB8181"/>
</svg>
